:SAMPLES-PER-SECOND 30
:FULLY-SPECIFIED
:DEGREES
405
root  43.5458 38.76 14.3345 176.971 -68.3625 179.144
RightUpLeg  -23.3284 -7.88037 0.863706
RightLeg  11.7409 -4.14961 0.639326
RightFoot  -2.36501 -0.234424 2.76684
RightToes  0.000482159 0.542163 -0.142577
Spine  24.6729 -7.52059 -10.422
Spine1  6.85611 -13.6673 13.2928
HEad  -12.6926 24.7497 -11.6703
LeftShoulder1  9.73328 -17.407 -40.2627
LeftArm  34.8197 -41.5562 -68.3771
LeftForeArm  10.9001 -14.1546 -10.0144
LeftHand  -0.25398 0.0180481 5.50724
RightShoulder  5.12185 9.31642 34.0036
RightArm  -19.4921 -24.0115 26.8125
RightForeArm  -38.0289 66.9843 31.6533
RightHand  -0.147772 -4.52797 -17.2097
LeftUpLeg  12.9795 2.74279 -11.654
LeftLeg  3.93555 26.6917 -5.16991
LeftFoot  -17.1265 0.398588 5.84715
LeftToes  1.06248e-005 4.65855e-005 -8.18498e-006
406
root  42.053 38.5092 14.1143 177.321 -70.4615 178.469
RightUpLeg  -22.6971 -6.50291 0.309664
RightLeg  6.11684 -11.0731 3.61844
RightFoot  -2.03132 -0.379447 4.5159
RightToes  0.000482159 0.542163 -0.142577
Spine  23.5074 -7.51212 -11.2583
Spine1  7.17261 -13.9023 13.917
HEad  -11.2312 23.3329 -10.4529
LeftShoulder1  9.86946 -17.4304 -40.8276
LeftArm  36.2978 -40.4375 -68.1133
LeftForeArm  9.66201 -14.9664 -9.61484
LeftHand  -0.25398 0.0180481 5.50724
RightShoulder  4.97087 8.99063 33.8383
RightArm  -19.8529 -26.2976 27.4604
RightForeArm  -35.7 68.6463 34.6957
RightHand  -0.304882 -3.56795 -18.4271
LeftUpLeg  15.6237 3.05617 -12.0089
LeftLeg  4.73095 24.9493 -4.81453
LeftFoot  -17.9961 0.41944 5.35692
LeftToes  1.06248e-005 4.65855e-005 -8.18498e-006
407
root  40.458 38.2362 13.8872 177.79 -72.0203 177.521
RightUpLeg  -21.9808 -4.9137 0.264044
RightLeg  3.62594 -12.9824 5.19923
RightFoot  -2.64764 -0.448917 5.61945
RightToes  0.000482159 0.542163 -0.142577
Spine  22.5068 -7.33286 -12.1041
Spine1  7.49609 -13.9993 14.5759
HEad  -10.0122 21.9196 -9.5689
LeftShoulder1  9.94781 -17.3966 -41.2521
LeftArm  36.7598 -39.1861 -67.844
LeftForeArm  8.84305 -15.4261 -9.34941
LeftHand  -0.25398 0.0180481 5.50724
RightShoulder  4.82038 8.6845 33.6046
RightArm  -20.6144 -28.4763 28.2804
RightForeArm  -32.6174 70.101 37.8623
RightHand  -0.432835 -2.86089 -19.2541
LeftUpLeg  18.2879 3.60473 -12.1033
LeftLeg  6.12989 23.2645 -4.58057
LeftFoot  -18.4938 0.390997 4.47269
LeftToes  1.06248e-005 4.65855e-005 -8.18498e-006
408
root  38.7649 38.0277 13.705 176.567 -73.591 178.478
RightUpLeg  -21.8894 -4.52227 1.62475
RightLeg  5.34237 -9.65678 4.52725
RightFoot  -1.60417 -0.335598 3.92426
RightToes  0.000482159 0.542163 -0.142577
Spine  21.776 -7.56483 -11.7857
Spine1  7.66503 -14.3095 14.975
HEad  -9.25176 20.6867 -9.24186
LeftShoulder1  9.93513 -17.2982 -41.4068
LeftArm  36.9826 -37.7497 -67.5239
LeftForeArm  8.01617 -15.9924 -8.97279
LeftHand  -0.25398 0.0180481 5.50724
RightShoulder  4.6785 8.40406 33.346
RightArm  -21.3627 -30.628 29.0471
RightForeArm  -28.3932 71.5246 41.5764
RightHand  -0.544659 -2.2819 -19.9106
LeftUpLeg  20.8476 4.75424 -11.043
LeftLeg  7.9069 20.4759 -4.41049
LeftFoot  -18.0663 0.305957 3.36695
LeftToes  1.06248e-005 4.65855e-005 -8.18498e-006
409
root  36.9552 37.8998 13.6187 172.151 -75.1016 -177.031
RightUpLeg  -22.5932 -5.76299 4.19822
RightLeg  10.0916 -4.65367 2.75803
RightFoot  1.75695 0.0280722 -0.102881
RightToes  0.000482159 0.542163 -0.142577
Spine  21.2319 -8.39906 -9.42821
Spine1  7.50995 -14.6701 14.6687
HEad  -8.89536 19.561 -9.70273
LeftShoulder1  9.96019 -17.2324 -41.6622
LeftArm  37.5138 -36.2588 -66.9747
LeftForeArm  7.18233 -16.663 -8.54236
LeftHand  -0.25398 0.0180481 5.50724
RightShoulder  4.5574 8.17008 33.0969
RightArm  -21.6994 -32.7774 29.4104
RightForeArm  -23.4033 72.8289 45.7113
RightHand  -0.658397 -1.70838 -20.4477
LeftUpLeg  23.1704 9.42869 -7.25787
LeftLeg  10.552 13.4867 -3.70838
LeftFoot  -16.8818 0.162338 1.29025
LeftToes  1.06248e-005 4.65855e-005 -8.18498e-006
410
root  35.0692 37.8252 13.6135 166.198 -75.8208 -170.903
RightUpLeg  -23.6764 -7.90502 6.84149
RightLeg  16.1567 -0.79197 0.713767
RightFoot  4.604 0.464122 -3.13037
RightToes  0.000482159 0.542163 -0.142577
Spine  20.8573 -9.32801 -6.03958
Spine1  7.07227 -14.7362 13.9262
HEad  -8.64133 18.734 -10.7916
LeftShoulder1  10.0976 -17.2541 -42.233
LeftArm  38.2467 -34.995 -66.0294
LeftForeArm  6.42557 -17.1642 -8.26446
LeftHand  -0.25398 0.0180481 5.50724
RightShoulder  4.48694 8.07113 32.823
RightArm  -21.4376 -34.3719 29.3363
RightForeArm  -19.7845 73.5767 48.5142
RightHand  -0.804121 -0.978727 -20.9478
LeftUpLeg  24.8817 18.8123 -0.751388
LeftLeg  15.2405 1.9527 -2.19564
LeftFoot  -14.1516 0.0366568 -2.39688
LeftToes  1.06248e-005 4.65855e-005 -8.18498e-006
411
root  33.2508 37.8286 13.611 161.964 -75.7143 -166.492
RightUpLeg  -24.062 -7.45355 7.5477
RightLeg  21.495 -1.28982 -0.929577
RightFoot  4.50476 0.638657 -4.38073
RightToes  0.000482159 0.542163 -0.142577
Spine  20.8471 -9.83026 -3.61214
Spine1  6.63676 -14.6412 13.7839
HEad  -8.13739 18.4889 -11.7897
LeftShoulder1  10.2425 -17.3287 -42.717
LeftArm  38.4302 -34.2081 -64.8575
LeftForeArm  6.11381 -17.2234 -8.28841
LeftHand  -0.25398 0.0180481 5.50724
RightShoulder  4.49582 8.1667 32.5817
RightArm  -20.5777 -34.7859 29.0481
RightForeArm  -19.5177 73.5149 48.2441
RightHand  -1.00438 -0.0154488 -21.5666
LeftUpLeg  23.6715 24.1267 3.49113
LeftLeg  23.1801 -3.91564 -1.06842
LeftFoot  -7.00886 0.285305 -6.19698
LeftToes  1.06248e-005 4.65855e-005 -8.18498e-006
412
root  31.6379 37.8513 13.5549 158.936 -75.621 -163.098
RightUpLeg  -23.8097 -6.07282 7.42025
RightLeg  25.607 -3.2392 -1.91003
RightFoot  1.61751 0.620935 -5.37898
RightToes  0.000482159 0.542163 -0.142577
Spine  21.1916 -10.0653 -2.60856
Spine1  6.40145 -14.7457 14.7829
HEad  -7.2366 18.5749 -12.047
LeftShoulder1  10.2785 -17.3994 -42.7218
LeftArm  37.5239 -33.9735 -63.8168
LeftForeArm  6.73277 -16.7346 -8.6398
LeftHand  -0.25398 0.0180481 5.50724
RightShoulder  4.56277 8.34578 32.5642
RightArm  -19.3498 -34.2011 28.7447
RightForeArm  -21.4173 72.9288 45.968
RightHand  -1.20032 0.877921 -22.1636
LeftUpLeg  17.4779 21.8813 3.52479
LeftLeg  34.5444 -1.25425 -0.557106
LeftFoot  5.26465 1.09975 -7.84304
LeftToes  1.06248e-005 4.65855e-005 -8.18498e-006
413
root  30.2359 37.842 13.4716 154.793 -75.7908 -158.337
RightUpLeg  -23.3328 -6.38774 8.0368
RightLeg  28.4697 -3.32174 -2.18968
RightFoot  -2.02059 0.464484 -5.8155
RightToes  0.000482159 0.542163 -0.142577
Spine  21.6056 -10.3252 -1.69903
Spine1  6.36031 -14.9699 16.1756
HEad  -6.12682 18.3269 -11.5618
LeftShoulder1  10.2215 -17.4153 -42.4337
LeftArm  35.9653 -34.1706 -63.0478
LeftForeArm  8.10221 -15.9285 -9.14813
LeftHand  -0.25398 0.0180481 5.50724
RightShoulder  4.63092 8.43782 32.8385
RightArm  -18.2345 -33.4071 28.6857
RightForeArm  -22.8837 72.3582 43.9575
RightHand  -1.27386 1.22683 -22.2972
LeftUpLeg  9.14796 19.6376 3.70058
LeftLeg  46.5793 0.419581 0.896843
LeftFoot  16.0955 1.7459 -7.58763
LeftToes  1.06248e-005 4.65855e-005 -8.18498e-006
414
root  28.8048 37.993 13.4139 151.958 -75.8002 -155.04
RightUpLeg  -21.7055 -7.22378 8.12643
RightLeg  29.4448 -2.60397 -1.84504
RightFoot  -4.76282 0.248994 -4.87051
RightToes  0.000482159 0.542163 -0.142577
Spine  21.799 -10.339 -0.71159
Spine1  6.29723 -14.8008 16.8357
HEad  -5.16574 17.4706 -10.759
LeftShoulder1  10.1271 -17.3336 -42.1912
LeftArm  34.5204 -34.5054 -62.4452
LeftForeArm  9.40486 -15.3147 -9.47923
LeftHand  -0.25398 0.0180481 5.50724
RightShoulder  4.67649 8.45364 33.1671
RightArm  -17.5728 -32.8664 29.2513
RightForeArm  -23.2523 71.9677 42.6592
RightHand  -1.18157 0.903816 -21.7264
LeftUpLeg  1.07924 17.7329 3.67947
LeftLeg  56.235 1.69991 3.24946
LeftFoot  18.3434 1.5256 -6.14082
LeftToes  1.06248e-005 4.65855e-005 -8.18498e-006
415
root  27.2439 38.3774 13.3728 154.014 -75.3923 -157.04
RightUpLeg  -18.6106 -7.70131 6.91099
RightLeg  28.5362 -1.74801 -1.28494
RightFoot  -6.56115 0.106435 -3.63712
RightToes  0.000482159 0.542163 -0.142577
Spine  21.736 -9.75421 -0.57391
Spine1  6.20965 -14.0547 16.5004
HEad  -4.50311 16.4111 -9.9655
LeftShoulder1  9.99795 -17.1493 -42.0143
LeftArm  33.1922 -34.6304 -61.8148
LeftForeArm  10.1546 -15.2761 -9.37106
LeftHand  -0.25398 0.0180481 5.50724
RightShoulder  4.72346 8.54071 33.2742
RightArm  -17.127 -32.4494 30.5006
RightForeArm  -23.4087 71.4966 41.1813
RightHand  -1.02666 0.335032 -20.7472
LeftUpLeg  -5.69595 16.9463 2.9469
LeftLeg  61.7653 2.71765 6.04081
LeftFoot  13.511 0.769121 -3.8456
LeftToes  1.06248e-005 4.65855e-005 -8.18498e-006
